<svg width="108" height="38" viewBox="0 0 108 38" fill="none" xmlns="http://www.w3.org/2000/svg">
<g clip-path="url(#clip0_714_1145)">
<path d="M25.7905 14.9971C24.2086 15.9746 23.2316 17.6503 23.2316 19.5123C23.2316 21.6069 24.4878 23.5154 26.3953 24.3067C26.0231 25.517 25.4648 26.6341 24.7669 27.6582C23.7434 29.1012 22.6733 30.5907 21.0914 30.5907C19.5095 30.5907 19.0443 29.6598 17.1832 29.6598C15.3687 29.6598 14.7174 30.6373 13.2286 30.6373C11.7397 30.6373 10.7162 29.2874 9.55302 27.6116C8.01767 25.2842 7.13368 22.5844 7.08716 19.745C7.08716 15.1367 10.0648 12.6697 13.0424 12.6697C14.6243 12.6697 15.927 13.6937 16.9041 13.6937C17.8346 13.6937 19.3234 12.6231 21.0914 12.6231C22.9524 12.5766 24.7204 13.461 25.7905 14.9971ZM20.2539 10.6681C21.0449 9.73714 21.4636 8.57344 21.5101 7.36319C21.5101 7.22354 21.5101 7.03735 21.4636 6.89771C20.1144 7.03735 18.8582 7.68902 17.9742 8.71308C17.1832 9.5975 16.718 10.7147 16.6715 11.9249C16.6715 12.0645 16.6715 12.2042 16.718 12.3438C16.811 12.3438 16.9506 12.3904 17.0437 12.3904C18.2999 12.2973 19.463 11.6456 20.2539 10.6681Z" fill="white"/>
</g>
<path d="M35.874 14.8958H34.0168V8.87762H35.9563C36.5401 8.87762 37.0396 8.9981 37.4549 9.23906C37.8703 9.47806 38.1886 9.82187 38.41 10.2705C38.6313 10.7171 38.742 11.252 38.742 11.8749C38.742 12.5018 38.6304 13.0415 38.407 13.4941C38.1837 13.9446 37.8585 14.2914 37.4314 14.5343C37.0044 14.7753 36.4852 14.8958 35.874 14.8958ZM34.7456 14.2493H35.827C36.3246 14.2493 36.737 14.1533 37.0641 13.9613C37.3913 13.7693 37.6352 13.496 37.7958 13.1414C37.9564 12.7869 38.0368 12.3647 38.0368 11.8749C38.0368 11.3891 37.9574 10.9708 37.7987 10.6202C37.6401 10.2675 37.403 9.9972 37.0876 9.80914C36.7722 9.61911 36.3794 9.5241 35.9093 9.5241H34.7456V14.2493ZM41.7041 14.9898C41.2966 14.9898 40.9391 14.8928 40.6315 14.6989C40.3259 14.5049 40.0869 14.2336 39.9145 13.8849C39.7441 13.5362 39.6588 13.1287 39.6588 12.6625C39.6588 12.1923 39.7441 11.7819 39.9145 11.4312C40.0869 11.0805 40.3259 10.8082 40.6315 10.6143C40.9391 10.4204 41.2966 10.3234 41.7041 10.3234C42.1115 10.3234 42.4681 10.4204 42.7737 10.6143C43.0813 10.8082 43.3203 11.0805 43.4907 11.4312C43.6631 11.7819 43.7493 12.1923 43.7493 12.6625C43.7493 13.1287 43.6631 13.5362 43.4907 13.8849C43.3203 14.2336 43.0813 14.5049 42.7737 14.6989C42.4681 14.8928 42.1115 14.9898 41.7041 14.9898ZM41.7041 14.3668C42.0136 14.3668 42.2683 14.2875 42.4681 14.1288C42.6679 13.9701 42.8158 13.7615 42.9118 13.5029C43.0078 13.2443 43.0558 12.9642 43.0558 12.6625C43.0558 12.3608 43.0078 12.0796 42.9118 11.8191C42.8158 11.5585 42.6679 11.348 42.4681 11.1873C42.2683 11.0267 42.0136 10.9464 41.7041 10.9464C41.3945 10.9464 41.1399 11.0267 40.94 11.1873C40.7402 11.348 40.5923 11.5585 40.4963 11.8191C40.4003 12.0796 40.3523 12.3608 40.3523 12.6625C40.3523 12.9642 40.4003 13.2443 40.4963 13.5029C40.5923 13.7615 40.7402 13.9701 40.94 14.1288C41.1399 14.2875 41.3945 14.3668 41.7041 14.3668ZM45.677 14.8958L44.3017 10.3822H45.0305L46.0061 13.8379H46.0531L47.017 10.3822H47.7575L48.7095 13.8261H48.7566L49.7322 10.3822H50.4609L49.0857 14.8958H48.4039L47.4166 11.4283H47.3461L46.3587 14.8958H45.677ZM52.0712 12.1805V14.8958H51.3777V10.3822H52.0477V11.0874H52.1065C52.2123 10.8582 52.3729 10.674 52.5884 10.535C52.8039 10.3939 53.0821 10.3234 53.423 10.3234C53.7286 10.3234 53.996 10.3861 54.2252 10.5114C54.4544 10.6349 54.6327 10.8229 54.76 11.0756C54.8873 11.3264 54.951 11.6438 54.951 12.0277V14.8958H54.2575V12.0748C54.2575 11.7202 54.1654 11.4439 53.9813 11.2461C53.7971 11.0463 53.5444 10.9464 53.2231 10.9464C53.0018 10.9464 52.8039 10.9943 52.6296 11.0903C52.4572 11.1863 52.321 11.3264 52.2211 11.5106C52.1212 11.6947 52.0712 11.918 52.0712 12.1805ZM56.9118 8.87762V14.8958H56.2183V8.87762H56.9118ZM60.0156 14.9898C59.6081 14.9898 59.2506 14.8928 58.943 14.6989C58.6374 14.5049 58.3984 14.2336 58.226 13.8849C58.0556 13.5362 57.9704 13.1287 57.9704 12.6625C57.9704 12.1923 58.0556 11.7819 58.226 11.4312C58.3984 11.0805 58.6374 10.8082 58.943 10.6143C59.2506 10.4204 59.6081 10.3234 60.0156 10.3234C60.4231 10.3234 60.7796 10.4204 61.0852 10.6143C61.3928 10.8082 61.6318 11.0805 61.8022 11.4312C61.9746 11.7819 62.0608 12.1923 62.0608 12.6625C62.0608 13.1287 61.9746 13.5362 61.8022 13.8849C61.6318 14.2336 61.3928 14.5049 61.0852 14.6989C60.7796 14.8928 60.4231 14.9898 60.0156 14.9898ZM60.0156 14.3668C60.3251 14.3668 60.5798 14.2875 60.7796 14.1288C60.9794 13.9701 61.1273 13.7615 61.2233 13.5029C61.3193 13.2443 61.3673 12.9642 61.3673 12.6625C61.3673 12.3608 61.3193 12.0796 61.2233 11.8191C61.1273 11.5585 60.9794 11.348 60.7796 11.1873C60.5798 11.0267 60.3251 10.9464 60.0156 10.9464C59.7061 10.9464 59.4514 11.0267 59.2516 11.1873C59.0517 11.348 58.9038 11.5585 58.8078 11.8191C58.7119 12.0796 58.6639 12.3608 58.6639 12.6625C58.6639 12.9642 58.7119 13.2443 58.8078 13.5029C58.9038 13.7615 59.0517 13.9701 59.2516 14.1288C59.4514 14.2875 59.7061 14.3668 60.0156 14.3668ZM64.4476 15.0015C64.1616 15.0015 63.9021 14.9477 63.6689 14.8399C63.4358 14.7302 63.2507 14.5725 63.1135 14.3668C62.9764 14.1592 62.9078 13.9084 62.9078 13.6145C62.9078 13.356 62.9588 13.1463 63.0606 12.9857C63.1625 12.8231 63.2987 12.6958 63.4691 12.6037C63.6395 12.5116 63.8276 12.443 64.0333 12.398C64.241 12.351 64.4496 12.3138 64.6592 12.2863C64.9335 12.2511 65.1558 12.2246 65.3263 12.207C65.4987 12.1874 65.624 12.1551 65.7024 12.11C65.7827 12.065 65.8229 11.9866 65.8229 11.8749V11.8514C65.8229 11.5615 65.7435 11.3362 65.5849 11.1756C65.4281 11.0149 65.1901 10.9346 64.8708 10.9346C64.5397 10.9346 64.2801 11.0071 64.0921 11.1521C63.904 11.297 63.7718 11.4518 63.6954 11.6163L63.0371 11.3813C63.1547 11.107 63.3114 10.8935 63.5073 10.7407C63.7052 10.5859 63.9207 10.4781 64.1538 10.4174C64.3889 10.3547 64.62 10.3234 64.8473 10.3234C64.9923 10.3234 65.1588 10.341 65.3468 10.3763C65.5369 10.4096 65.72 10.4791 65.8963 10.5849C66.0746 10.6907 66.2225 10.8504 66.3401 11.0639C66.4576 11.2774 66.5164 11.5634 66.5164 11.9219V14.8958H65.8229V14.2845H65.7876C65.7406 14.3825 65.6622 14.4873 65.5525 14.599C65.4428 14.7106 65.2969 14.8056 65.1147 14.884C64.9325 14.9624 64.7102 15.0015 64.4476 15.0015ZM64.5534 14.3786C64.8277 14.3786 65.0589 14.3247 65.2469 14.2169C65.4369 14.1092 65.58 13.9701 65.676 13.7997C65.7739 13.6292 65.8229 13.45 65.8229 13.2619V12.6272C65.7935 12.6625 65.7288 12.6948 65.6289 12.7242C65.531 12.7516 65.4174 12.7761 65.2881 12.7976C65.1607 12.8172 65.0363 12.8349 64.9149 12.8505C64.7954 12.8642 64.6984 12.876 64.624 12.8858C64.4437 12.9093 64.2752 12.9475 64.1185 13.0004C63.9638 13.0513 63.8384 13.1287 63.7424 13.2325C63.6484 13.3344 63.6013 13.4735 63.6013 13.6498C63.6013 13.8908 63.6905 14.073 63.8687 14.1964C64.049 14.3178 64.2772 14.3786 64.5534 14.3786ZM69.4865 14.9898C69.1104 14.9898 68.7783 14.8948 68.4903 14.7047C68.2024 14.5128 67.9771 14.2424 67.8145 13.8937C67.6519 13.543 67.5706 13.1287 67.5706 12.6507C67.5706 12.1766 67.6519 11.7652 67.8145 11.4165C67.9771 11.0678 68.2033 10.7984 68.4933 10.6084C68.7832 10.4184 69.1182 10.3234 69.4983 10.3234C69.7921 10.3234 70.0243 10.3724 70.1947 10.4703C70.3671 10.5663 70.4983 10.676 70.5885 10.7994C70.6805 10.9209 70.752 11.0208 70.803 11.0992H70.8617V8.87762H71.5552V14.8958H70.8853V14.2023H70.803C70.752 14.2845 70.6796 14.3884 70.5855 14.5137C70.4915 14.6372 70.3573 14.7478 70.1829 14.8458C70.0086 14.9418 69.7764 14.9898 69.4865 14.9898ZM69.5805 14.3668C69.8587 14.3668 70.0938 14.2943 70.2858 14.1494C70.4778 14.0024 70.6237 13.7997 70.7236 13.5411C70.8235 13.2805 70.8735 12.9798 70.8735 12.639C70.8735 12.302 70.8245 12.0072 70.7266 11.7545C70.6286 11.4998 70.4837 11.3019 70.2917 11.1609C70.0997 11.0179 69.8626 10.9464 69.5805 10.9464C69.2867 10.9464 69.0418 11.0218 68.8459 11.1726C68.652 11.3215 68.506 11.5243 68.4081 11.7809C68.3121 12.0356 68.2641 12.3216 68.2641 12.639C68.2641 12.9602 68.313 13.2521 68.411 13.5146C68.5109 13.7752 68.6578 13.9828 68.8518 14.1376C69.0477 14.2904 69.2906 14.3668 69.5805 14.3668ZM77.0826 14.9898C76.6752 14.9898 76.3176 14.8928 76.0101 14.6989C75.7045 14.5049 75.4655 14.2336 75.2931 13.8849C75.1226 13.5362 75.0374 13.1287 75.0374 12.6625C75.0374 12.1923 75.1226 11.7819 75.2931 11.4312C75.4655 11.0805 75.7045 10.8082 76.0101 10.6143C76.3176 10.4204 76.6752 10.3234 77.0826 10.3234C77.4901 10.3234 77.8467 10.4204 78.1523 10.6143C78.4598 10.8082 78.6988 11.0805 78.8693 11.4312C79.0417 11.7819 79.1279 12.1923 79.1279 12.6625C79.1279 13.1287 79.0417 13.5362 78.8693 13.8849C78.6988 14.2336 78.4598 14.5049 78.1523 14.6989C77.8467 14.8928 77.4901 14.9898 77.0826 14.9898ZM77.0826 14.3668C77.3922 14.3668 77.6468 14.2875 77.8467 14.1288C78.0465 13.9701 78.1944 13.7615 78.2904 13.5029C78.3864 13.2443 78.4344 12.9642 78.4344 12.6625C78.4344 12.3608 78.3864 12.0796 78.2904 11.8191C78.1944 11.5585 78.0465 11.348 77.8467 11.1873C77.6468 11.0267 77.3922 10.9464 77.0826 10.9464C76.7731 10.9464 76.5184 11.0267 76.3186 11.1873C76.1188 11.348 75.9709 11.5585 75.8749 11.8191C75.7789 12.0796 75.7309 12.3608 75.7309 12.6625C75.7309 12.9642 75.7789 13.2443 75.8749 13.5029C75.9709 13.7615 76.1188 13.9701 76.3186 14.1288C76.5184 14.2875 76.7731 14.3668 77.0826 14.3668ZM80.88 12.1805V14.8958H80.1865V10.3822H80.8565V11.0874H80.9152C81.021 10.8582 81.1817 10.674 81.3971 10.535C81.6126 10.3939 81.8908 10.3234 82.2317 10.3234C82.5373 10.3234 82.8047 10.3861 83.0339 10.5114C83.2631 10.6349 83.4414 10.8229 83.5687 11.0756C83.6961 11.3264 83.7597 11.6438 83.7597 12.0277V14.8958H83.0662V12.0748C83.0662 11.7202 82.9742 11.4439 82.79 11.2461C82.6059 11.0463 82.3532 10.9464 82.0319 10.9464C81.8105 10.9464 81.6126 10.9943 81.4383 11.0903C81.2659 11.1863 81.1297 11.3264 81.0298 11.5106C80.9299 11.6947 80.88 11.918 80.88 12.1805ZM89.3173 10.3822V10.9699H86.9782V10.3822H89.3173ZM87.6599 9.30077H88.3534V13.6028C88.3534 13.7987 88.3818 13.9456 88.4386 14.0436C88.4974 14.1396 88.5718 14.2042 88.662 14.2375C88.754 14.2689 88.851 14.2845 88.9529 14.2845C89.0293 14.2845 89.092 14.2806 89.1409 14.2728C89.1899 14.263 89.2291 14.2551 89.2585 14.2493L89.3995 14.8722C89.3525 14.8899 89.2869 14.9075 89.2026 14.9251C89.1184 14.9447 89.0116 14.9545 88.8823 14.9545C88.6864 14.9545 88.4945 14.9124 88.3064 14.8282C88.1203 14.7439 87.9655 14.6156 87.8421 14.4432C87.7206 14.2708 87.6599 14.0534 87.6599 13.7909V9.30077ZM91.1509 12.1805V14.8958H90.4574V8.87762H91.1509V11.0874H91.2097C91.3155 10.8543 91.4741 10.6692 91.6857 10.532C91.8992 10.3929 92.1833 10.3234 92.5379 10.3234C92.8455 10.3234 93.1148 10.3851 93.346 10.5085C93.5772 10.63 93.7564 10.8171 93.8837 11.0698C94.013 11.3205 94.0777 11.6398 94.0777 12.0277V14.8958H93.3842V12.0748C93.3842 11.7163 93.2911 11.439 93.105 11.2431C92.9209 11.0453 92.6652 10.9464 92.3381 10.9464C92.1108 10.9464 91.9071 10.9943 91.7269 11.0903C91.5486 11.1863 91.4075 11.3264 91.3037 11.5106C91.2018 11.6947 91.1509 11.918 91.1509 12.1805ZM97.2388 14.9898C96.8039 14.9898 96.4288 14.8938 96.1134 14.7018C95.7999 14.5079 95.558 14.2375 95.3875 13.8908C95.2191 13.5421 95.1348 13.1365 95.1348 12.6742C95.1348 12.2119 95.2191 11.8044 95.3875 11.4518C95.558 11.0972 95.795 10.821 96.0987 10.6231C96.4043 10.4233 96.7608 10.3234 97.1683 10.3234C97.4034 10.3234 97.6355 10.3626 97.8647 10.4409C98.0939 10.5193 98.3026 10.6466 98.4906 10.8229C98.6787 10.9973 98.8286 11.2285 98.9402 11.5164C99.0519 11.8044 99.1077 12.159 99.1077 12.5802V12.874H95.6285V12.2746H98.4025C98.4025 12.0199 98.3516 11.7927 98.2497 11.5928C98.1498 11.393 98.0068 11.2353 97.8207 11.1197C97.6365 11.0041 97.4191 10.9464 97.1683 10.9464C96.8921 10.9464 96.6531 11.0149 96.4513 11.1521C96.2515 11.2872 96.0977 11.4635 95.9899 11.681C95.8822 11.8984 95.8283 12.1316 95.8283 12.3804V12.78C95.8283 13.1209 95.8871 13.4098 96.0046 13.6469C96.1241 13.882 96.2897 14.0612 96.5012 14.1846C96.7128 14.3061 96.9587 14.3668 97.2388 14.3668C97.421 14.3668 97.5856 14.3413 97.7325 14.2904C97.8814 14.2375 98.0097 14.1592 98.1174 14.0553C98.2252 13.9495 98.3085 13.8183 98.3672 13.6616L99.0372 13.8496C98.9667 14.0769 98.8482 14.2767 98.6816 14.4491C98.5151 14.6195 98.3094 14.7527 98.0646 14.8487C97.8197 14.9428 97.5444 14.9898 97.2388 14.9898ZM34.5889 27.8958H33.5702L36.5166 19.8716H37.5196L40.466 27.8958H39.4473L37.0494 21.141H36.9867L34.5889 27.8958ZM34.965 24.7613H39.0711V25.6233H34.965V24.7613ZM41.5904 30.1526V21.8776H42.4838V22.8336H42.5935C42.6614 22.7291 42.7554 22.5959 42.8756 22.434C42.9983 22.2694 43.1733 22.1232 43.4006 21.9952C43.6304 21.8646 43.9413 21.7993 44.3331 21.7993C44.8398 21.7993 45.2865 21.9259 45.6731 22.1793C46.0596 22.4327 46.3613 22.7918 46.5781 23.2568C46.7949 23.7217 46.9033 24.2702 46.9033 24.9024C46.9033 25.5397 46.7949 26.0921 46.5781 26.5597C46.3613 27.0246 46.0609 27.3851 45.677 27.6411C45.293 27.8944 44.8503 28.0211 44.3488 28.0211C43.9622 28.0211 43.6526 27.9571 43.4202 27.8291C43.1877 27.6985 43.0088 27.551 42.8834 27.3864C42.758 27.2192 42.6614 27.0808 42.5935 26.9711H42.5151V30.1526H41.5904ZM42.4994 24.8867C42.4994 25.3412 42.566 25.7421 42.6993 26.0895C42.8325 26.4343 43.0271 26.7047 43.283 26.9006C43.539 27.0939 43.8525 27.1905 44.2234 27.1905C44.61 27.1905 44.9325 27.0886 45.1911 26.8849C45.4523 26.6785 45.6482 26.4017 45.7788 26.0543C45.9121 25.7043 45.9787 25.3151 45.9787 24.8867C45.9787 24.4635 45.9134 24.0822 45.7828 23.7426C45.6548 23.4004 45.4602 23.1301 45.199 22.9316C44.9404 22.7304 44.6152 22.6299 44.2234 22.6299C43.8472 22.6299 43.5312 22.7252 43.2752 22.9159C43.0192 23.104 42.8259 23.3678 42.6953 23.7074C42.5647 24.0443 42.4994 24.4374 42.4994 24.8867ZM48.3138 30.1526V21.8776H49.2071V22.8336H49.3168C49.3848 22.7291 49.4788 22.5959 49.5989 22.434C49.7217 22.2694 49.8967 22.1232 50.124 21.9952C50.3538 21.8646 50.6647 21.7993 51.0565 21.7993C51.5632 21.7993 52.0099 21.9259 52.3964 22.1793C52.783 22.4327 53.0847 22.7918 53.3015 23.2568C53.5183 23.7217 53.6267 24.2702 53.6267 24.9024C53.6267 25.5397 53.5183 26.0921 53.3015 26.5597C53.0847 27.0246 52.7843 27.3851 52.4004 27.6411C52.0164 27.8944 51.5736 28.0211 51.0721 28.0211C50.6856 28.0211 50.376 27.9571 50.1436 27.8291C49.9111 27.6985 49.7322 27.551 49.6068 27.3864C49.4814 27.2192 49.3848 27.0808 49.3168 26.9711H49.2385V30.1526H48.3138ZM49.2228 24.8867C49.2228 25.3412 49.2894 25.7421 49.4226 26.0895C49.5559 26.4343 49.7504 26.7047 50.0064 26.9006C50.2624 27.0939 50.5759 27.1905 50.9468 27.1905C51.3333 27.1905 51.6559 27.0886 51.9145 26.8849C52.1757 26.6785 52.3716 26.4017 52.5022 26.0543C52.6354 25.7043 52.702 25.3151 52.702 24.8867C52.702 24.4635 52.6367 24.0822 52.5061 23.7426C52.3782 23.4004 52.1836 23.1301 51.9224 22.9316C51.6638 22.7304 51.3386 22.6299 50.9468 22.6299C50.5706 22.6299 50.2546 22.7252 49.9986 22.9159C49.7426 23.104 49.5493 23.3678 49.4187 23.7074C49.2881 24.0443 49.2228 24.4374 49.2228 24.8867ZM62.6539 21.8776C62.6069 21.4806 62.4162 21.1724 62.0819 20.953C61.7475 20.7335 61.3374 20.6238 60.8516 20.6238C60.4964 20.6238 60.1855 20.6813 59.9191 20.7962C59.6553 20.9112 59.4489 21.0692 59.3001 21.2703C59.1538 21.4714 59.0806 21.7 59.0806 21.956C59.0806 22.1702 59.1316 22.3543 59.2334 22.5084C59.3379 22.6599 59.4711 22.7866 59.6331 22.8885C59.795 22.9877 59.9648 23.07 60.1424 23.1353C60.3201 23.198 60.4833 23.2489 60.6322 23.2881L61.4471 23.5075C61.6561 23.5624 61.8886 23.6381 62.1446 23.7348C62.4032 23.8314 62.65 23.9633 62.8851 24.1305C63.1228 24.2951 63.3187 24.5066 63.4728 24.7652C63.6269 25.0238 63.7039 25.3412 63.7039 25.7173C63.7039 26.1509 63.5903 26.5427 63.3631 26.8927C63.1384 27.2427 62.8093 27.5209 62.3757 27.7273C61.9447 27.9336 61.421 28.0368 60.8046 28.0368C60.2299 28.0368 59.7323 27.9441 59.3118 27.7586C58.8939 27.5732 58.5648 27.3146 58.3245 26.9828C58.0868 26.6511 57.9522 26.2658 57.9209 25.827H58.9239C58.95 26.13 59.0519 26.3808 59.2295 26.5793C59.4098 26.7752 59.637 26.9215 59.9113 27.0181C60.1881 27.1121 60.4859 27.1592 60.8046 27.1592C61.1755 27.1592 61.5085 27.0991 61.8037 26.9789C62.0989 26.8562 62.3326 26.6864 62.505 26.4696C62.6774 26.2502 62.7636 25.9942 62.7636 25.7016C62.7636 25.4352 62.6892 25.2184 62.5403 25.0512C62.3914 24.8841 62.1955 24.7482 61.9526 24.6438C61.7097 24.5393 61.4471 24.4479 61.165 24.3695L60.1777 24.0874C59.5508 23.9072 59.0545 23.6499 58.6888 23.3155C58.3232 22.9812 58.1403 22.5437 58.1403 22.003C58.1403 21.5537 58.2618 21.1619 58.5047 20.8276C58.7502 20.4906 59.0793 20.2294 59.492 20.044C59.9074 19.8559 60.371 19.7619 60.8829 19.7619C61.4001 19.7619 61.8599 19.8546 62.2621 20.0401C62.6644 20.2229 62.983 20.4736 63.2181 20.7923C63.4558 21.111 63.5812 21.4728 63.5942 21.8776H62.6539ZM67.7934 21.8776V22.6612H64.6746V21.8776H67.7934ZM65.5836 20.4358H66.5083V26.1718C66.5083 26.433 66.5462 26.6289 66.6219 26.7595C66.7003 26.8875 66.7995 26.9737 66.9197 27.0181C67.0425 27.0599 67.1718 27.0808 67.3076 27.0808C67.4094 27.0808 67.493 27.0756 67.5583 27.0651C67.6236 27.0521 67.6759 27.0416 67.7151 27.0338L67.9031 27.8644C67.8404 27.8879 67.7529 27.9114 67.6406 27.9349C67.5283 27.9611 67.3859 27.9741 67.2135 27.9741C66.9523 27.9741 66.6964 27.918 66.4456 27.8056C66.1975 27.6933 65.9911 27.5222 65.8266 27.2924C65.6646 27.0625 65.5836 26.7726 65.5836 26.4226V20.4358ZM71.5645 28.0211C71.0212 28.0211 70.5445 27.8918 70.1345 27.6332C69.727 27.3747 69.4083 27.0129 69.1785 26.5479C68.9512 26.083 68.8376 25.5397 68.8376 24.918C68.8376 24.2911 68.9512 23.7439 69.1785 23.2764C69.4083 22.8088 69.727 22.4457 70.1345 22.1871C70.5445 21.9286 71.0212 21.7993 71.5645 21.7993C72.1079 21.7993 72.5832 21.9286 72.9907 22.1871C73.4008 22.4457 73.7195 22.8088 73.9467 23.2764C74.1766 23.7439 74.2915 24.2911 74.2915 24.918C74.2915 25.5397 74.1766 26.083 73.9467 26.5479C73.7195 27.0129 73.4008 27.3747 72.9907 27.6332C72.5832 27.8918 72.1079 28.0211 71.5645 28.0211ZM71.5645 27.1905C71.9772 27.1905 72.3168 27.0847 72.5832 26.8731C72.8497 26.6616 73.0469 26.3834 73.1749 26.0386C73.3029 25.6938 73.3669 25.3203 73.3669 24.918C73.3669 24.5158 73.3029 24.1409 73.1749 23.7935C73.0469 23.4461 72.8497 23.1654 72.5832 22.9512C72.3168 22.737 71.9772 22.6299 71.5645 22.6299C71.1518 22.6299 70.8123 22.737 70.5459 22.9512C70.2794 23.1654 70.0822 23.4461 69.9542 23.7935C69.8262 24.1409 69.7622 24.5158 69.7622 24.918C69.7622 25.3203 69.8262 25.6938 69.9542 26.0386C70.0822 26.3834 70.2794 26.6616 70.5459 26.8731C70.8123 27.0847 71.1518 27.1905 71.5645 27.1905ZM75.703 27.8958V21.8776H76.5963V22.7866H76.659C76.7687 22.4888 76.9672 22.2472 77.2545 22.0618C77.5419 21.8763 77.8658 21.7836 78.2262 21.7836C78.2941 21.7836 78.379 21.7849 78.4809 21.7875C78.5828 21.7901 78.6598 21.794 78.7121 21.7993V22.7396C78.6807 22.7318 78.6089 22.72 78.4966 22.7043C78.3869 22.686 78.2706 22.6769 78.1479 22.6769C77.8553 22.6769 77.5941 22.7383 77.3642 22.8611C77.137 22.9812 76.9568 23.1484 76.8236 23.3626C76.693 23.5741 76.6277 23.8158 76.6277 24.0874V27.8958H75.703ZM82.1482 28.0211C81.5683 28.0211 81.0681 27.8931 80.6476 27.6372C80.2297 27.3786 79.9071 27.0181 79.6798 26.5558C79.4552 26.0908 79.3429 25.5501 79.3429 24.9337C79.3429 24.3173 79.4552 23.774 79.6798 23.3038C79.9071 22.831 80.2231 22.4627 80.628 22.1989C81.0355 21.9325 81.5109 21.7993 82.0542 21.7993C82.3676 21.7993 82.6771 21.8515 82.9827 21.956C83.2883 22.0605 83.5665 22.2302 83.8173 22.4653C84.068 22.6978 84.2679 23.006 84.4167 23.39C84.5656 23.774 84.6401 24.2467 84.6401 24.8083V25.2001H80.0011V24.4008H83.6997C83.6997 24.0613 83.6318 23.7583 83.496 23.4919C83.3628 23.2254 83.1721 23.0152 82.924 22.8611C82.6784 22.7069 82.3885 22.6299 82.0542 22.6299C81.6859 22.6299 81.3672 22.7213 81.0982 22.9041C80.8317 23.0844 80.6267 23.3195 80.483 23.6094C80.3394 23.8993 80.2675 24.2102 80.2675 24.5419V25.0748C80.2675 25.5292 80.3459 25.9145 80.5026 26.2306C80.6619 26.544 80.8827 26.783 81.1648 26.9476C81.4469 27.1095 81.7747 27.1905 82.1482 27.1905C82.3911 27.1905 82.6105 27.1565 82.8064 27.0886C83.0049 27.0181 83.176 26.9136 83.3197 26.7752C83.4634 26.6341 83.5744 26.4591 83.6527 26.2502L84.546 26.5009C84.452 26.8039 84.294 27.0703 84.072 27.3002C83.8499 27.5275 83.5757 27.7051 83.2492 27.8331C82.9227 27.9584 82.5557 28.0211 82.1482 28.0211Z" fill="white"/>
<rect x="0.533265" y="0.344789" width="106.306" height="37.102" rx="6.6743" stroke="white" stroke-width="0.689578"/>
<defs>
<clipPath id="clip0_714_1145">
<rect width="19.3082" height="23.7396" fill="white" transform="translate(7.08423 6.89575)"/>
</clipPath>
</defs>
</svg>
