<svg width="29" height="30" viewBox="0 0 29 30" fill="none" xmlns="http://www.w3.org/2000/svg">
<path d="M8.56945 1.03568C7.07577 1.10615 6.05575 1.34452 5.16403 1.69492C4.24115 2.05458 3.45894 2.53722 2.68065 3.31831C1.90237 4.0994 1.4231 4.88218 1.06597 5.80646C0.720342 6.70014 0.486182 7.72101 0.420202 9.21553C0.354222 10.7101 0.339622 11.1904 0.346922 15.0027C0.354222 18.8149 0.371068 19.2928 0.443506 20.7904C0.514821 22.2838 0.752349 23.3036 1.10275 24.1955C1.46297 25.1184 1.94505 25.9004 2.72642 26.6789C3.50779 27.4575 4.29001 27.9356 5.21654 28.2933C6.10938 28.6384 7.13052 28.8737 8.62476 28.9391C10.119 29.0045 10.6 29.0197 14.4111 29.0124C18.2222 29.0051 18.702 28.9882 20.1994 28.9172C21.6967 28.8462 22.7111 28.6069 23.6034 28.2582C24.5263 27.8972 25.3088 27.4159 26.0868 26.6343C26.8648 25.8526 27.3438 25.0693 27.7006 24.1444C28.0465 23.2516 28.2815 22.2305 28.3464 20.7373C28.4118 19.2389 28.4272 18.7605 28.4199 14.9488C28.4126 11.1371 28.3955 10.6592 28.3245 9.16219C28.2534 7.66514 28.0156 6.64848 27.6655 5.75593C27.3047 4.83305 26.8232 4.05167 26.0421 3.27255C25.261 2.49342 24.4771 2.01471 23.5526 1.6587C22.6592 1.31308 21.6386 1.07751 20.1443 1.01294C18.6501 0.948362 18.1691 0.931797 14.3566 0.939097C10.5441 0.946397 10.0668 0.962681 8.56945 1.03568ZM8.73342 26.4136C7.36468 26.3541 6.62149 26.1267 6.12622 25.9363C5.47035 25.6836 5.00316 25.3781 4.50957 24.8893C4.01598 24.4005 3.71275 23.9316 3.45669 23.2772C3.26437 22.7819 3.03274 22.0395 2.96872 20.6708C2.89909 19.1914 2.88449 18.7473 2.87635 14.9993C2.86821 11.2514 2.88252 10.8078 2.94738 9.32784C3.00578 7.96022 3.23461 7.21619 3.42469 6.7212C3.67738 6.06449 3.98173 5.59814 4.47166 5.10483C4.9616 4.61152 5.42908 4.30773 6.08411 4.05167C6.57882 3.85851 7.32116 3.62884 8.68934 3.5637C10.1698 3.49351 10.6134 3.47947 14.3608 3.47133C18.1082 3.46319 18.5529 3.47723 20.034 3.54236C21.4016 3.60189 22.1459 3.82846 22.6403 4.01967C23.2965 4.27236 23.7634 4.57587 24.2567 5.06665C24.75 5.55743 25.0541 6.02322 25.3102 6.67965C25.5036 7.17296 25.7333 7.91502 25.7978 9.28404C25.8683 10.7645 25.8843 11.2084 25.8911 14.9555C25.8978 18.7026 25.8846 19.1476 25.8197 20.627C25.7599 21.9957 25.5331 22.7392 25.3424 23.235C25.0898 23.8906 24.7851 24.3581 24.2949 24.8511C23.8047 25.3442 23.3378 25.6479 22.6825 25.904C22.1883 26.0969 21.4451 26.3271 20.0781 26.3923C18.5976 26.4619 18.154 26.4765 14.4052 26.4846C10.6564 26.4928 10.2142 26.4776 8.7337 26.4136M20.1777 7.47281C20.1783 7.80602 20.2777 8.13158 20.4633 8.40831C20.6488 8.68504 20.9123 8.90052 21.2204 9.0275C21.5285 9.15447 21.8673 9.18723 22.194 9.12164C22.5206 9.05605 22.8205 8.89505 23.0557 8.65901C23.2909 8.42296 23.4508 8.12248 23.5152 7.79555C23.5796 7.46863 23.5456 7.12995 23.4175 6.82235C23.2894 6.51476 23.0729 6.25206 22.7955 6.06748C22.5181 5.8829 22.1922 5.78474 21.859 5.78541C21.4123 5.7863 20.9842 5.96456 20.669 6.281C20.3537 6.59743 20.177 7.02613 20.1777 7.47281ZM7.17545 14.9898C7.18331 18.971 10.4166 22.1912 14.397 22.1836C18.3775 22.176 21.5998 18.943 21.5922 14.9617C21.5847 10.9804 18.3505 7.75948 14.3695 7.76734C10.3885 7.7752 7.16787 11.0091 7.17545 14.9898ZM9.70403 14.9847C9.7022 14.0592 9.97486 13.1539 10.4875 12.3834C11.0002 11.6128 11.7299 11.0116 12.5842 10.6557C13.4386 10.2998 14.3793 10.2053 15.2874 10.384C16.1955 10.5628 17.0302 11.0068 17.6859 11.66C18.3417 12.3131 18.789 13.1461 18.9714 14.0534C19.1537 14.9608 19.0629 15.9019 18.7104 16.7577C18.3579 17.6135 17.7596 18.3455 16.9911 18.8612C16.2225 19.3769 15.3184 19.6532 14.3928 19.655C13.7783 19.6563 13.1695 19.5365 12.6013 19.3025C12.033 19.0685 11.5164 18.7248 11.081 18.2911C10.6456 17.8574 10.2999 17.3422 10.0636 16.7749C9.82736 16.2076 9.70517 15.5993 9.70403 14.9847Z" fill="white"/>
</svg>
