<svg width="36" height="30" viewBox="0 0 36 30" fill="none" xmlns="http://www.w3.org/2000/svg">
<path d="M11.0244 29.4745C24.2677 29.4745 31.5143 18.4923 31.5143 8.9846C31.5143 8.67564 31.5143 8.36667 31.5002 8.05771C32.9046 7.04656 34.1264 5.76857 35.0955 4.32206C33.8034 4.89785 32.4131 5.27704 30.9525 5.45961C32.4412 4.57485 33.5787 3.15642 34.1264 1.47116C32.7361 2.29975 31.1913 2.88959 29.5482 3.2126C28.228 1.80822 26.3602 0.9375 24.2958 0.9375C20.3214 0.9375 17.0913 4.16757 17.0913 8.14197C17.0913 8.70372 17.1615 9.25143 17.2739 9.7851C11.2912 9.49018 5.98266 6.6112 2.42958 2.25762C1.81165 3.32495 1.46056 4.5608 1.46056 5.88092C1.46056 8.38072 2.73854 10.5856 4.66254 11.8776C3.48286 11.8355 2.3734 11.5125 1.40438 10.9788C1.40438 11.0069 1.40438 11.035 1.40438 11.0771C1.40438 14.56 3.89013 17.4811 7.17638 18.1412C6.5725 18.3097 5.94053 18.3939 5.28047 18.3939C4.81702 18.3939 4.36762 18.3518 3.93226 18.2676C4.84511 21.1325 7.51343 23.211 10.6592 23.2672C8.18754 25.2052 5.08386 26.3568 1.71334 26.3568C1.13755 26.3568 0.561752 26.3287 0 26.2585C3.1739 28.2808 6.96573 29.4745 11.0244 29.4745Z" fill="white"/>
</svg>
